<!--?xml version="1.0" encoding="us-ascii" standalone="no"?--><svg xmlns="http://www.w3.org/2000/svg" xmlns:xlink="http://www.w3.org/1999/xlink" contentstyletype="text/css" height="677px" preserveAspectRatio="none" style="width:1911px;height:677px;background:#FFFFFF;" version="1.1" viewBox="0 0 1911 677" width="1911px" zoomAndPan="magnify"><defs></defs><g><line style="stroke:#181818;stroke-width:0.5;stroke-dasharray:5.0,5.0;" x1="24" x2="24" y1="81.2969" y2="596.5547"></line><line style="stroke:#181818;stroke-width:0.5;stroke-dasharray:5.0,5.0;" x1="205" x2="205" y1="81.2969" y2="596.5547"></line><line style="stroke:#181818;stroke-width:0.5;stroke-dasharray:5.0,5.0;" x1="337" x2="337" y1="81.2969" y2="596.5547"></line><line style="stroke:#181818;stroke-width:0.5;stroke-dasharray:5.0,5.0;" x1="496" x2="496" y1="81.2969" y2="596.5547"></line><line style="stroke:#181818;stroke-width:0.5;stroke-dasharray:5.0,5.0;" x1="730" x2="730" y1="81.2969" y2="596.5547"></line><line style="stroke:#181818;stroke-width:0.5;stroke-dasharray:5.0,5.0;" x1="954.5" x2="954.5" y1="81.2969" y2="596.5547"></line><line style="stroke:#181818;stroke-width:0.5;stroke-dasharray:5.0,5.0;" x1="1093.5" x2="1093.5" y1="81.2969" y2="596.5547"></line><line style="stroke:#181818;stroke-width:0.5;stroke-dasharray:5.0,5.0;" x1="1292" x2="1292" y1="81.2969" y2="596.5547"></line><line style="stroke:#181818;stroke-width:0.5;stroke-dasharray:5.0,5.0;" x1="1407" x2="1407" y1="81.2969" y2="596.5547"></line><line style="stroke:#181818;stroke-width:0.5;stroke-dasharray:5.0,5.0;" x1="1602" x2="1602" y1="81.2969" y2="596.5547"></line><line style="stroke:#181818;stroke-width:0.5;stroke-dasharray:5.0,5.0;" x1="1839" x2="1839" y1="81.2969" y2="596.5547"></line><text fill="#000000" font-family="sans-serif" font-size="14" lengthAdjust="spacing" textLength="32" x="5" y="77.9951">User</text><ellipse cx="24" cy="13.5" fill="#E2E2F0" rx="8" ry="8" style="stroke:#181818;stroke-width:0.5;"></ellipse><path d="M24,21.5 L24,48.5 M11,29.5 L37,29.5 M24,48.5 L11,63.5 M24,48.5 L37,63.5 " fill="none" style="stroke:#181818;stroke-width:0.5;"></path><text fill="#000000" font-family="sans-serif" font-size="14" lengthAdjust="spacing" textLength="32" x="5" y="608.5498">User</text><ellipse cx="24" cy="620.3516" fill="#E2E2F0" rx="8" ry="8" style="stroke:#181818;stroke-width:0.5;"></ellipse><path d="M24,628.3516 L24,655.3516 M11,636.3516 L37,636.3516 M24,655.3516 L11,670.3516 M24,655.3516 L37,670.3516 " fill="none" style="stroke:#181818;stroke-width:0.5;"></path><rect fill="#E2E2F0" height="30.2969" rx="2.5" ry="2.5" style="stroke:#181818;stroke-width:0.5;" width="58" x="176" y="50"></rect><text fill="#000000" font-family="sans-serif" font-size="14" lengthAdjust="spacing" textLength="44" x="183" y="69.9951">Server</text><rect fill="#E2E2F0" height="30.2969" rx="2.5" ry="2.5" style="stroke:#181818;stroke-width:0.5;" width="58" x="176" y="595.5547"></rect><text fill="#000000" font-family="sans-serif" font-size="14" lengthAdjust="spacing" textLength="44" x="183" y="615.5498">Server</text><text fill="#000000" font-family="sans-serif" font-size="14" lengthAdjust="spacing" textLength="66" x="301" y="77.9951">Database</text><path d="M319,29 C319,19 337,19 337,19 C337,19 355,19 355,29 L355,55 C355,65 337,65 337,65 C337,65 319,65 319,55 L319,29 " fill="#E2E2F0" style="stroke:#181818;stroke-width:1.5;"></path><path d="M319,29 C319,39 337,39 337,39 C337,39 355,39 355,29 " fill="none" style="stroke:#181818;stroke-width:1.5;"></path><text fill="#000000" font-family="sans-serif" font-size="14" lengthAdjust="spacing" textLength="66" x="301" y="608.5498">Database</text><path d="M319,621.8516 C319,611.8516 337,611.8516 337,611.8516 C337,611.8516 355,611.8516 355,621.8516 L355,647.8516 C355,657.8516 337,657.8516 337,657.8516 C337,657.8516 319,657.8516 319,647.8516 L319,621.8516 " fill="#E2E2F0" style="stroke:#181818;stroke-width:1.5;"></path><path d="M319,621.8516 C319,631.8516 337,631.8516 337,631.8516 C337,631.8516 355,631.8516 355,621.8516 " fill="none" style="stroke:#181818;stroke-width:1.5;"></path><rect fill="#E2E2F0" height="30.2969" rx="2.5" ry="2.5" style="stroke:#181818;stroke-width:0.5;" width="226" x="383" y="50"></rect><text fill="#000000" font-family="sans-serif" font-size="14" lengthAdjust="spacing" textLength="212" x="390" y="69.9951">WebSecurityConfigurerAdapter</text><rect fill="#E2E2F0" height="30.2969" rx="2.5" ry="2.5" style="stroke:#181818;stroke-width:0.5;" width="226" x="383" y="595.5547"></rect><text fill="#000000" font-family="sans-serif" font-size="14" lengthAdjust="spacing" textLength="212" x="390" y="615.5498">WebSecurityConfigurerAdapter</text><rect fill="#E2E2F0" height="30.2969" rx="2.5" ry="2.5" style="stroke:#181818;stroke-width:0.5;" width="222" x="619" y="50"></rect><text fill="#000000" font-family="sans-serif" font-size="14" lengthAdjust="spacing" textLength="208" x="626" y="69.9951">AuthenticationManagerBuilder</text><rect fill="#E2E2F0" height="30.2969" rx="2.5" ry="2.5" style="stroke:#181818;stroke-width:0.5;" width="222" x="619" y="595.5547"></rect><text fill="#000000" font-family="sans-serif" font-size="14" lengthAdjust="spacing" textLength="208" x="626" y="615.5498">AuthenticationManagerBuilder</text><rect fill="#E2E2F0" height="30.2969" rx="2.5" ry="2.5" style="stroke:#181818;stroke-width:0.5;" width="143" x="883.5" y="50"></rect><text fill="#000000" font-family="sans-serif" font-size="14" lengthAdjust="spacing" textLength="129" x="890.5" y="69.9951">UserDetailsService</text><rect fill="#E2E2F0" height="30.2969" rx="2.5" ry="2.5" style="stroke:#181818;stroke-width:0.5;" width="143" x="883.5" y="595.5547"></rect><text fill="#000000" font-family="sans-serif" font-size="14" lengthAdjust="spacing" textLength="129" x="890.5" y="615.5498">UserDetailsService</text><rect fill="#E2E2F0" height="30.2969" rx="2.5" ry="2.5" style="stroke:#181818;stroke-width:0.5;" width="114" x="1036.5" y="50"></rect><text fill="#000000" font-family="sans-serif" font-size="14" lengthAdjust="spacing" textLength="100" x="1043.5" y="69.9951">Authentication</text><rect fill="#E2E2F0" height="30.2969" rx="2.5" ry="2.5" style="stroke:#181818;stroke-width:0.5;" width="114" x="1036.5" y="595.5547"></rect><text fill="#000000" font-family="sans-serif" font-size="14" lengthAdjust="spacing" textLength="100" x="1043.5" y="615.5498">Authentication</text><rect fill="#E2E2F0" height="30.2969" rx="2.5" ry="2.5" style="stroke:#181818;stroke-width:0.5;" width="123" x="1231" y="50"></rect><text fill="#000000" font-family="sans-serif" font-size="14" lengthAdjust="spacing" textLength="109" x="1238" y="69.9951">SecurityContext</text><rect fill="#E2E2F0" height="30.2969" rx="2.5" ry="2.5" style="stroke:#181818;stroke-width:0.5;" width="123" x="1231" y="595.5547"></rect><text fill="#000000" font-family="sans-serif" font-size="14" lengthAdjust="spacing" textLength="109" x="1238" y="615.5498">SecurityContext</text><rect fill="#E2E2F0" height="30.2969" rx="2.5" ry="2.5" style="stroke:#181818;stroke-width:0.5;" width="86" x="1364" y="50"></rect><text fill="#000000" font-family="sans-serif" font-size="14" lengthAdjust="spacing" textLength="72" x="1371" y="69.9951">FilterChain</text><rect fill="#E2E2F0" height="30.2969" rx="2.5" ry="2.5" style="stroke:#181818;stroke-width:0.5;" width="86" x="1364" y="595.5547"></rect><text fill="#000000" font-family="sans-serif" font-size="14" lengthAdjust="spacing" textLength="72" x="1371" y="615.5498">FilterChain</text><rect fill="#E2E2F0" height="30.2969" rx="2.5" ry="2.5" style="stroke:#181818;stroke-width:0.5;" width="285" x="1460" y="50"></rect><text fill="#000000" font-family="sans-serif" font-size="14" lengthAdjust="spacing" textLength="271" x="1467" y="69.9951">UsernamePasswordAuthenticationFilter</text><rect fill="#E2E2F0" height="30.2969" rx="2.5" ry="2.5" style="stroke:#181818;stroke-width:0.5;" width="285" x="1460" y="595.5547"></rect><text fill="#000000" font-family="sans-serif" font-size="14" lengthAdjust="spacing" textLength="271" x="1467" y="615.5498">UsernamePasswordAuthenticationFilter</text><rect fill="#E2E2F0" height="30.2969" rx="2.5" ry="2.5" style="stroke:#181818;stroke-width:0.5;" width="131" x="1774" y="50"></rect><text fill="#000000" font-family="sans-serif" font-size="14" lengthAdjust="spacing" textLength="117" x="1781" y="69.9951">GrantedAuthority</text><rect fill="#E2E2F0" height="30.2969" rx="2.5" ry="2.5" style="stroke:#181818;stroke-width:0.5;" width="131" x="1774" y="595.5547"></rect><text fill="#000000" font-family="sans-serif" font-size="14" lengthAdjust="spacing" textLength="117" x="1781" y="615.5498">GrantedAuthority</text><polygon fill="#181818" points="193,108.4297,203,112.4297,193,116.4297,197,112.4297" style="stroke:#181818;stroke-width:1.0;"></polygon><line style="stroke:#181818;stroke-width:1.0;" x1="24" x2="199" y1="112.4297" y2="112.4297"></line><text fill="#000000" font-family="sans-serif" font-size="13" lengthAdjust="spacing" textLength="157" x="31" y="107.3638">Enter registration details</text><polygon fill="#181818" points="325,137.5625,335,141.5625,325,145.5625,329,141.5625" style="stroke:#181818;stroke-width:1.0;"></polygon><line style="stroke:#181818;stroke-width:1.0;" x1="205" x2="331" y1="141.5625" y2="141.5625"></line><text fill="#000000" font-family="sans-serif" font-size="13" lengthAdjust="spacing" textLength="100" x="212" y="136.4966">Store user data</text><polygon fill="#181818" points="216,166.6953,206,170.6953,216,174.6953,212,170.6953" style="stroke:#181818;stroke-width:1.0;"></polygon><line style="stroke:#181818;stroke-width:1.0;" x1="210" x2="336" y1="170.6953" y2="170.6953"></line><text fill="#000000" font-family="sans-serif" font-size="13" lengthAdjust="spacing" textLength="108" x="222" y="165.6294">User data stored</text><polygon fill="#181818" points="35,195.8281,25,199.8281,35,203.8281,31,199.8281" style="stroke:#181818;stroke-width:1.0;"></polygon><line style="stroke:#181818;stroke-width:1.0;" x1="29" x2="204" y1="199.8281" y2="199.8281"></line><text fill="#000000" font-family="sans-serif" font-size="13" lengthAdjust="spacing" textLength="140" x="41" y="194.7622">Registration complete</text><polygon fill="#181818" points="193,224.9609,203,228.9609,193,232.9609,197,228.9609" style="stroke:#181818;stroke-width:1.0;"></polygon><line style="stroke:#181818;stroke-width:1.0;" x1="24" x2="199" y1="228.9609" y2="228.9609"></line><text fill="#000000" font-family="sans-serif" font-size="13" lengthAdjust="spacing" textLength="87" x="31" y="223.895">Login request</text><polygon fill="#181818" points="484,254.0938,494,258.0938,484,262.0938,488,258.0938" style="stroke:#181818;stroke-width:1.0;"></polygon><line style="stroke:#181818;stroke-width:1.0;" x1="205" x2="490" y1="258.0938" y2="258.0938"></line><text fill="#000000" font-family="sans-serif" font-size="13" lengthAdjust="spacing" textLength="182" x="212" y="253.0278">Invoke security configuration</text><polygon fill="#181818" points="718,283.2266,728,287.2266,718,291.2266,722,287.2266" style="stroke:#181818;stroke-width:1.0;"></polygon><line style="stroke:#181818;stroke-width:1.0;" x1="496" x2="724" y1="287.2266" y2="287.2266"></line><text fill="#000000" font-family="sans-serif" font-size="13" lengthAdjust="spacing" textLength="183" x="503" y="282.1606">Define authentication details</text><polygon fill="#181818" points="943,312.3594,953,316.3594,943,320.3594,947,316.3594" style="stroke:#181818;stroke-width:1.0;"></polygon><line style="stroke:#181818;stroke-width:1.0;" x1="730" x2="949" y1="316.3594" y2="316.3594"></line><text fill="#000000" font-family="sans-serif" font-size="13" lengthAdjust="spacing" textLength="109" x="737" y="311.2935">Load user details</text><polygon fill="#181818" points="348,341.4922,338,345.4922,348,349.4922,344,345.4922" style="stroke:#181818;stroke-width:1.0;"></polygon><line style="stroke:#181818;stroke-width:1.0;" x1="342" x2="954" y1="345.4922" y2="345.4922"></line><text fill="#000000" font-family="sans-serif" font-size="13" lengthAdjust="spacing" textLength="130" x="354" y="340.4263">Retrieve user details</text><polygon fill="#181818" points="943,370.625,953,374.625,943,378.625,947,374.625" style="stroke:#181818;stroke-width:1.0;"></polygon><line style="stroke:#181818;stroke-width:1.0;" x1="337" x2="949" y1="374.625" y2="374.625"></line><text fill="#000000" font-family="sans-serif" font-size="13" lengthAdjust="spacing" textLength="120" x="344" y="369.5591">Return user details</text><polygon fill="#181818" points="943,399.7578,953,403.7578,943,407.7578,947,403.7578" style="stroke:#181818;stroke-width:1.0;"></polygon><line style="stroke:#181818;stroke-width:1.0;" x1="730" x2="949" y1="403.7578" y2="403.7578"></line><text fill="#000000" font-family="sans-serif" font-size="13" lengthAdjust="spacing" textLength="201" x="737" y="398.6919">Compare authentication details</text><polygon fill="#181818" points="1081.5,428.8906,1091.5,432.8906,1081.5,436.8906,1085.5,432.8906" style="stroke:#181818;stroke-width:1.0;"></polygon><line style="stroke:#181818;stroke-width:1.0;" x1="730" x2="1087.5" y1="432.8906" y2="432.8906"></line><text fill="#000000" font-family="sans-serif" font-size="13" lengthAdjust="spacing" textLength="183" x="737" y="427.8247">Create Authentication object</text><polygon fill="#181818" points="1280.5,458.0234,1290.5,462.0234,1280.5,466.0234,1284.5,462.0234" style="stroke:#181818;stroke-width:1.0;"></polygon><line style="stroke:#181818;stroke-width:1.0;" x1="1093.5" x2="1286.5" y1="462.0234" y2="462.0234"></line><text fill="#000000" font-family="sans-serif" font-size="13" lengthAdjust="spacing" textLength="175" x="1100.5" y="456.9575">Store Authentication object</text><polygon fill="#181818" points="1395,487.1563,1405,491.1563,1395,495.1563,1399,491.1563" style="stroke:#181818;stroke-width:1.0;"></polygon><line style="stroke:#181818;stroke-width:1.0;" x1="24" x2="1401" y1="491.1563" y2="491.1563"></line><text fill="#000000" font-family="sans-serif" font-size="13" lengthAdjust="spacing" textLength="105" x="31" y="486.0903">Enter FilterChain</text><polygon fill="#181818" points="1590.5,516.2891,1600.5,520.2891,1590.5,524.2891,1594.5,520.2891" style="stroke:#181818;stroke-width:1.0;"></polygon><line style="stroke:#181818;stroke-width:1.0;" x1="1407" x2="1596.5" y1="520.2891" y2="520.2891"></line><text fill="#000000" font-family="sans-serif" font-size="13" lengthAdjust="spacing" textLength="137" x="1414" y="515.2231">Apply security checks</text><polygon fill="#181818" points="1827.5,545.4219,1837.5,549.4219,1827.5,553.4219,1831.5,549.4219" style="stroke:#181818;stroke-width:1.0;"></polygon><line style="stroke:#181818;stroke-width:1.0;" x1="1602.5" x2="1833.5" y1="549.4219" y2="549.4219"></line><text fill="#000000" font-family="sans-serif" font-size="13" lengthAdjust="spacing" textLength="213" x="1609.5" y="544.356">Validate username and password</text><polygon fill="#181818" points="35,574.5547,25,578.5547,35,582.5547,31,578.5547" style="stroke:#181818;stroke-width:1.0;"></polygon><line style="stroke:#181818;stroke-width:1.0;" x1="29" x2="1838.5" y1="578.5547" y2="578.5547"></line><text fill="#000000" font-family="sans-serif" font-size="13" lengthAdjust="spacing" textLength="117" x="41" y="573.4888">Grant permissions</text><!--SRC=[dLFTJi8m5BxVK_G5V04kJ13Kc6XY8EZrOJsC8wEjfwSeRs_NbRdXWWbNM_hzzVmKIh6iLXwvSC129JamefR8XtYaGM0D7jKy_nGDKztSPeAQg7iZySjOaHS68MkKHW6gVP4vaNsIH_uovg4AZKtZNdHGttHrWfLlwBfdbQ29MlG3IxjtDSh8xPvjHIRUxZEWbvxBEwwNM0OcESwisL0L67cgmKcIFPc3tQ7ocH83MawAAowAe_aqo1PDx6MYlu212lakKAsJ-HmtP531WDKrxQ8urpzlkKqvL68g4tJkQROPeGtdi41XmWCEPVrfZ2P5MM0p55rrvLcS6V3LRHZYZHyZ29wVs_K7bdBcrcv8Dq31R-aMSrn_sgi7gkECPriWqwr-xwpeuxbm0tjy1U-_BEkXUKkEFbFdwcDlsRPOxje9_YkE8OyS7omcs2RzHBr1JRhfHiWU2enMBXiLVnI_pof1oY7loViOuty0]--></g></svg>