<?xml version="1.0" encoding="iso-8859-1"?>
<!-- Generator: Adobe Illustrator 19.0.0, SVG Export Plug-In . SVG Version: 6.00 Build 0)  -->
<svg version="1.1" id="Layer_1" xmlns="http://www.w3.org/2000/svg" xmlns:xlink="http://www.w3.org/1999/xlink" x="0px"
     y="0px"
     viewBox="0 0 512 512" style="enable-background:new 0 0 512 512;" xml:space="preserve">
<g transform="translate(1 1)">
	<g>
		<g>
			<path d="M161.133,447c5.12,0,8.533-3.413,8.533-8.533s-3.413-8.533-8.533-8.533s-8.533,3.413-8.533,8.533
				S156.013,447,161.133,447z"/>
      <path d="M195.267,429.933c-5.12,0-8.533,3.413-8.533,8.533s3.413,8.533,8.533,8.533s8.533-3.413,8.533-8.533
				S200.387,429.933,195.267,429.933z"/>
      <path d="M92.867,429.933c-5.12,0-8.533,3.413-8.533,8.533S87.747,447,92.867,447c5.12,0,8.533-3.413,8.533-8.533
				S97.987,429.933,92.867,429.933z"/>
      <path
        d="M127,429.933c-5.12,0-8.533,3.413-8.533,8.533S121.88,447,127,447s8.533-3.413,8.533-8.533S132.12,429.933,127,429.933z"
      />
      <path
        d="M178.2,319c5.12,0,8.533-3.413,8.533-8.533s-3.413-8.533-8.533-8.533s-8.533,3.413-8.533,8.533S173.08,319,178.2,319z"/>
      <path d="M58.733,429.933c-5.12,0-8.533,3.413-8.533,8.533S53.613,447,58.733,447s8.533-3.413,8.533-8.533
				S63.853,429.933,58.733,429.933z"/>
      <path d="M212.333,319c5.12,0,8.533-3.413,8.533-8.533s-3.413-8.533-8.533-8.533c-5.12,0-8.533,3.413-8.533,8.533
				S207.213,319,212.333,319z"/>
      <path d="M178.2,421.4c5.12,0,8.533-3.413,8.533-8.533c0-5.12-3.413-8.533-8.533-8.533s-8.533,3.413-8.533,8.533
				C169.667,417.987,173.08,421.4,178.2,421.4z"/>
      <path d="M212.333,404.333c-5.12,0-8.533,3.413-8.533,8.533c0,5.12,3.413,8.533,8.533,8.533c5.12,0,8.533-3.413,8.533-8.533
				C220.867,407.747,217.453,404.333,212.333,404.333z"/>
      <path d="M109.933,404.333c-5.12,0-8.533,3.413-8.533,8.533c0,5.12,3.413,8.533,8.533,8.533s8.533-3.413,8.533-8.533
				C118.467,407.747,115.053,404.333,109.933,404.333z"/>
      <path d="M135.533,412.867c0,5.12,3.413,8.533,8.533,8.533c5.12,0,8.533-3.413,8.533-8.533c0-5.12-3.413-8.533-8.533-8.533
				C138.947,404.333,135.533,407.747,135.533,412.867z"/>
      <path d="M75.8,404.333c-5.12,0-8.533,3.413-8.533,8.533c0,5.12,3.413,8.533,8.533,8.533s8.533-3.413,8.533-8.533
				C84.333,407.747,80.92,404.333,75.8,404.333z"/>
      <path d="M195.267,344.6c5.12,0,8.533-3.413,8.533-8.533s-3.413-8.533-8.533-8.533s-8.533,3.413-8.533,8.533
				S190.147,344.6,195.267,344.6z"/>
      <path d="M178.2,378.733h34.133c5.12,0,8.533-3.413,8.533-8.533s-3.413-8.533-8.533-8.533H178.2c-5.12,0-8.533,3.413-8.533,8.533
				S173.08,378.733,178.2,378.733z"/>
      <path d="M41.667,310.467V370.2c0,5.12,3.413,8.533,8.533,8.533h85.333c5.12,0,8.533-3.413,8.533-8.533v-59.733
				c0-5.12-3.413-8.533-8.533-8.533H50.2C45.08,301.933,41.667,305.347,41.667,310.467z M58.733,319H127v42.667H58.733V319z"/>
      <path d="M289.133,378.733h179.2V293.4h-179.2V378.733z M306.2,310.467h145.067v51.2H306.2V310.467z"/>
      <path d="M417.133,327.533h-76.8c-5.12,0-8.533,3.413-8.533,8.533s3.413,8.533,8.533,8.533h76.8c5.12,0,8.533-3.413,8.533-8.533
				S422.253,327.533,417.133,327.533z"/>
      <path d="M476.013,250.733h-50.347V46.787c0-19.627-15.36-34.987-34.987-34.987H119.32c-19.627,0-34.987,15.36-34.987,34.987
				v203.947H33.987C14.36,250.733-1,266.093-1,285.72v177.493C-1,482.84,14.36,498.2,33.987,498.2h212.48h17.067h212.48
				c19.627,0,34.987-15.36,34.987-34.987V285.72C511,266.093,495.64,250.733,476.013,250.733z M101.4,46.787
				c0-10.24,7.68-17.92,17.92-17.92h271.36c10.24,0,17.92,7.68,17.92,17.92v203.947H263.533h-17.067H101.4V46.787z M246.467,481.133
				H33.987c-10.24,0-17.92-7.68-17.92-17.92V285.72c0-10.24,7.68-17.92,17.92-17.92h50.347h162.133V481.133z M493.933,463.213
				c0,10.24-7.68,17.92-17.92,17.92h-212.48V267.8h162.133h50.347c10.24,0,17.92,7.68,17.92,17.92V463.213z"/>
      <path d="M383,189.293V91.16c0-20.48-16.213-36.693-35.84-36.693H163.693C143.213,54.467,127,70.68,127,91.16v97.28
				c0,20.48,16.213,36.693,36.693,36.693h182.613C366.787,225.133,383,208.92,383,189.293z M144.067,189.293V91.16
				c0-11.093,8.533-19.627,19.627-19.627h182.613c11.093,0,19.627,8.533,20.48,19.627v98.133c0,11.093-8.533,19.627-19.627,19.627
				H163.693C152.6,208.92,144.067,200.387,144.067,189.293z"/>
      <path d="M459.8,421.4h-43.754c-3.814-14.679-17.216-25.6-33.046-25.6c-15.83,0-29.232,10.921-33.046,25.6h-52.288
				c-5.12,0-8.533,3.413-8.533,8.533s3.413,8.533,8.533,8.533h52.288c3.814,14.679,17.216,25.6,33.046,25.6
				c15.83,0,29.232-10.921,33.046-25.6H459.8c5.12,0,8.533-3.413,8.533-8.533S464.92,421.4,459.8,421.4z M383,447
				c-9.387,0-17.067-7.68-17.067-17.067s7.68-17.067,17.067-17.067s17.067,7.68,17.067,17.067S392.387,447,383,447z"/>
      <path d="M169.667,139.8c2.56,0,4.267-0.853,5.973-2.56l34.133-34.133c3.413-3.413,3.413-8.533,0-11.947s-8.533-3.413-11.947,0
				l-34.133,34.133c-3.413,3.413-3.413,8.533,0,11.947C165.4,138.947,167.107,139.8,169.667,139.8z"/>
      <path d="M180.76,150.893l-17.067,17.067c-3.413,3.413-3.413,8.533,0,11.947c1.707,1.707,3.413,2.56,5.973,2.56
				s4.267-0.853,5.973-2.56l17.067-17.067c3.413-3.413,3.413-8.533,0-11.947S184.173,147.48,180.76,150.893z"/>
      <path d="M240.493,91.16l-25.6,25.6c-3.413,3.413-3.413,8.533,0,11.947c1.707,1.707,3.413,2.56,5.973,2.56s4.267-0.853,5.973-2.56
				l25.6-25.6c3.413-3.413,3.413-8.533,0-11.947S243.907,87.747,240.493,91.16z"/>
      <path d="M203.8,131.267c-5.12,0-8.533,3.413-8.533,8.533s3.413,8.533,8.533,8.533c5.12,0,8.533-3.413,8.533-8.533
				S208.92,131.267,203.8,131.267z"/>
		</g>
	</g>
</g>
  <g>
</g>
  <g>
</g>
  <g>
</g>
  <g>
</g>
  <g>
</g>
  <g>
</g>
  <g>
</g>
  <g>
</g>
  <g>
</g>
  <g>
</g>
  <g>
</g>
  <g>
</g>
  <g>
</g>
  <g>
</g>
  <g>
</g>
</svg>
