<?xml version="1.0" encoding="iso-8859-1"?>
<!-- Generator: Adobe Illustrator 17.1.0, SVG Export Plug-In . SVG Version: 6.00 Build 0)  -->
<!DOCTYPE svg PUBLIC "-//W3C//DTD SVG 1.1//EN" "http://www.w3.org/Graphics/SVG/1.1/DTD/svg11.dtd">
<svg version="1.1" id="Capa_1" xmlns="http://www.w3.org/2000/svg" xmlns:xlink="http://www.w3.org/1999/xlink" x="0px"
     y="0px"
     viewBox="0 0 163 163" style="enable-background:new 0 0 163 163;" xml:space="preserve">
<path d="M75.612,73.83v3.988c0,4.604-3.745,8.349-8.354,8.349c-4.604,0-8.349-3.746-8.349-8.349V73.83H75.612z M93.964,51.493
	c-4.605,0-8.352,3.746-8.352,8.351v3.986h16.703v-3.986C102.315,55.239,98.569,51.493,93.964,51.493z M163,23.718v14.028
	c0,10.826-8.808,19.633-19.633,19.633h-5.816v85.007c0,9.114-7.415,16.529-16.529,16.529H41.645
	c-9.114,0-16.529-7.415-16.529-16.529V57.379h-5.482C8.808,57.379,0,48.572,0,37.746V23.718C0,12.892,8.808,4.085,19.633,4.085
	h123.733C154.192,4.085,163,12.892,163,23.718z M121.525,68.83c0-2.761-2.239-5-5-5h-4.21v-3.986
	c0-10.119-8.232-18.351-18.351-18.351c-10.119,0-18.352,8.232-18.352,18.351v3.986H58.91V46.493c0-2.761-2.239-5-5-5s-5,2.239-5,5
	V63.83h-2.768c-2.761,0-5,2.239-5,5s2.239,5,5,5h2.768v3.988c0,10.118,8.231,18.349,18.354,18.349
	c10.118,0,18.349-8.231,18.349-18.349V73.83h16.703v17.337c0,2.761,2.239,5,5,5s5-2.239,5-5V73.83h4.21
	C119.286,73.83,121.525,71.592,121.525,68.83z M153,23.718c0-5.312-4.321-9.633-9.633-9.633H19.633
	c-5.312,0-9.633,4.321-9.633,9.633v14.028c0,5.312,4.321,9.633,9.633,9.633h5.482v-6.147h-1.949c-2.761,0-5-2.239-5-5v-11
	c0-2.761,2.239-5,5-5h116.667c2.761,0,5,2.239,5,5v11c0,2.761-2.239,5-5,5h-2.283v6.147h5.816c5.312,0,9.633-4.321,9.633-9.633
	V23.718z"/>
  <g>
</g>
  <g>
</g>
  <g>
</g>
  <g>
</g>
  <g>
</g>
  <g>
</g>
  <g>
</g>
  <g>
</g>
  <g>
</g>
  <g>
</g>
  <g>
</g>
  <g>
</g>
  <g>
</g>
  <g>
</g>
  <g>
</g>
</svg>
