<?xml version="1.0" encoding="iso-8859-1"?>
<!-- Generator: Adobe Illustrator 19.0.0, SVG Export Plug-In . SVG Version: 6.00 Build 0)  -->
<svg version="1.1" id="Layer_1" xmlns="http://www.w3.org/2000/svg" xmlns:xlink="http://www.w3.org/1999/xlink" x="0px"
     y="0px"
     viewBox="0 0 301.591 301.591" style="enable-background:new 0 0 301.591 301.591;" xml:space="preserve">
<g id="XMLID_1386_">
	<g>
		<g>
			<path d="M197.989,189.113l-13.916-73.333c-0.688-3.623-3.854-6.245-7.543-6.245H35.549c-3.688,0-6.855,2.622-7.543,6.246
				l-13.915,73.332C5.561,195.24,0,205.238,0,216.542v36.57c0,6.978,5.657,12.635,12.635,12.635h6.027v16.151
				c0,10.237,8.299,18.535,18.535,18.535c10.236,0,18.535-8.299,18.535-18.535v-16.151h100.617v16.151
				c0,10.237,8.299,18.535,18.535,18.535s18.535-8.299,18.535-18.535v-16.151h6.027c6.978,0,12.635-5.657,12.635-12.635v-36.57
				C212.079,205.239,206.518,195.24,197.989,189.113z M36.667,244.3c-9.717,0-17.498-7.899-17.498-17.497
				c0-9.664,7.834-17.498,17.498-17.498c9.621,0,17.425,7.765,17.495,17.369c0,0.043,0.003,0.085,0.003,0.129
				C54.164,236.466,46.331,244.3,36.667,244.3z M154.246,151.71c-4.169,0-35.966,0-40.13,0c-9.706,0-17.641,7.896-17.689,17.601
				l-0.062,13.473H33.759c-0.965,0-1.919,0.05-2.864,0.129l11.01-58.025h78.227c-0.884,1.949-1.381,4.111-1.381,6.391
				c0,8.556,6.936,15.492,15.492,15.492c8.556,0,15.492-6.936,15.492-15.492c0-2.28-0.497-4.442-1.381-6.391h21.817l11.011,58.025
				c-1.98-0.166-2.367-0.129-9.186-0.129l-0.062-13.473C171.888,159.605,163.952,151.71,154.246,151.71z M175.412,244.3
				c-9.664,0-17.498-7.834-17.498-17.497c0-0.043,0.003-0.086,0.003-0.129c0.07-9.604,7.874-17.369,17.495-17.369
				c9.664,0,17.498,7.834,17.498,17.498C192.91,236.405,185.125,244.3,175.412,244.3z"/>
      <path d="M210.655,108.449l-3.37,2.866c-2.913,2.477-3.931,6.529-2.534,10.089l6.258,15.951l-0.003-3.054
				c-0.008-9.978,3.817-19.043,10.113-25.859L210.655,108.449z"/>
      <path d="M276.941,108.396c6.199,6.69,9.924,15.447,10.138,25.008l12.461-27.649c-2.303,1.65-5.121,2.627-8.164,2.629
				L276.941,108.396z"/>
      <circle cx="247.975" cy="16.617" r="15.459"/>
      <path d="M249.069,147.746c-0.003,0-0.005,0-0.008,0c-5.138,0.004-9.3,4.172-9.296,9.31l0.028,34.943
				c0.004,5.135,4.168,9.296,9.303,9.296c0.003,0,0.005,0,0.008,0c5.138-0.004,9.3-4.172,9.296-9.31l-0.028-34.943
				C258.368,151.906,254.203,147.746,249.069,147.746z"/>
      <path d="M259.661,106.957c2.358-1.997,4.041-4.505,4.987-7.296l25.391-0.02c5.611,3.669,12.928-1.418,11.327-8.005
				c-3.662-15.064,0.778,3.201-7.251-29.832c-0.377-1.552-1.241-2.941-2.467-3.964l-21.926-18.306
				c-0.601-0.501-2.677-1.477-3.669-1.642c-2.172-0.362-35.332-0.008-35.983,0.079c-1.722,0.101-2.592,0.556-4.046,1.888
				l-23.627,21.64c-1.295,1.187-2.131,2.792-2.358,4.535c-2.861,21.911-1.9,14.548-3.517,26.935
				c-0.874,6.694,6.915,10.98,12.111,6.737l24.773-0.02c1.049,2.982,2.811,5.466,4.999,7.285
				c-10.964,4.279-18.667,14.942-18.656,27.321l0.026,32.473c0.004,3.643,2.959,6.645,6.65,6.645c0.002,0,0.003,0,0.005,0
				l4.603-0.004l-0.013-16.344c-0.008-9.953,8.032-18.054,18.04-18.062h0.008c9.943,0,18.039,8.089,18.047,18.033l0.013,16.344
				l4.531-0.004h0.073c3.672-0.003,6.648-2.983,6.645-6.655v-0.026l-0.026-32.447C278.344,122.07,270.813,111.292,259.661,106.957z
				 M233.399,89.033l-21.319,0.017c0.963-7.378,0.57-4.367,2.401-18.386l13.831-12.669l0.048,21.865
				c4.641-6.617,12.278-10.754,20.646-10.761h0.014h0.001c7.354,0.001,14.151,3.197,18.844,8.466L267.82,57.38l12.381,10.336
				c4.382,18.024,2.336,9.611,5.172,21.275l-20.743,0.016c-2.22-6.502-8.423-11.164-15.625-11.164
				C241.885,77.85,235.649,82.438,233.399,89.033z M249.025,102.106h-0.007c-4.274,0-7.755-3.478-7.758-7.752
				c-0.003-4.278,3.475-7.762,7.759-7.765c4.274,0,7.755,3.478,7.758,7.753C256.781,98.63,253.313,102.102,249.025,102.106z"/>
		</g>
	</g>
</g>
  <g>
</g>
  <g>
</g>
  <g>
</g>
  <g>
</g>
  <g>
</g>
  <g>
</g>
  <g>
</g>
  <g>
</g>
  <g>
</g>
  <g>
</g>
  <g>
</g>
  <g>
</g>
  <g>
</g>
  <g>
</g>
  <g>
</g>
</svg>
